<svg xmlns="http://www.w3.org/2000/svg" viewBox="0 0 50 50" width="250" height="250"><path d="M25.012 2c-5.39 0-10.633.75-14.2 1.883C6.02 5.383 5.02 6.039 5.02 9.32c0 17.239 6.789 26.832 12.8 32.582 3.16 3.02 6.078 5.22 7.192 5.22 1.11 0 4.027-2.2 7.187-5.22C38.211 36.152 45 26.56 45 9.32c0-3.28-1-3.937-5.79-5.437C35.64 2.75 30.41 2 25.013 2zm-1.59 5.32c.726 0 1.316.73 1.316 2.188 0 1.46-.59 2.18-1.316 2.18-.73 0-1.324-.458-1.324-2.18 0-.922.23-1.547.586-1.883a1.04 1.04 0 01.472-.273c.086-.02.172-.032.266-.032zm1.777.047l1.473.063a1.125 1.125 0 011.008 1.18c0 .898-.617 1.12-.617 1.12l.667 1.957-.828-.027-.652-1.8h-.29l-.01 1.761h-.75zm4.02.07c1.21 0 1.3 1.313 1.3 1.313l-.769.133s-.121-.672-.46-.672c-.34 0-.571.61-.571 1.36 0 .761.172 1.519.629 1.519.39 0 .402-.461.402-.55 0-.102-.012-.25-.012-.25l-.425-.028V9.52l1.199.097v.992c0 .211 0 1.23-1.121 1.23s-1.422-1.14-1.422-2.347c0-1.222.402-2.055 1.25-2.055zm-8.59.114c.098-.004.176.023.262.043.062.011.129.011.183.031.07.031.125.082.188.125.043.035.093.059.133.098a.926.926 0 01.132.207c.024.043.059.074.078.12.047.126.075.259.075.403 0 .578-.2.762-.399.91.457.211.469.832.469.883 0 1.219-.898 1.399-1.04 1.41-.148.02-1.382.117-1.382.117V7.66s.774-.078 1.3-.11zm10.45.148l.769.121v1.61l.965.14V7.937l.777.165v4.218l-.8-.14.023-1.86-.973-.133-.02 1.876-.742-.114zm-12.36.012v4.27l-.77.09.063-2.079-.793 2.52-.782-2.575.051 2.364-.707.129c-.004 0-.004-.262-.008-.66 0-.297-.003-.668-.003-1.063V8.199l.761-.168.719 2.34.688-2.559zm4.703.379c-.313 0-.563.469-.563 1.441 0 .426.036.735.094.953.102.368.274.485.469.485.308 0 .558-.48.558-1.438 0-.96-.25-1.441-.558-1.441zm2.527.05v1.008h.563c.238 0 .41-.23.41-.558 0-.34-.32-.45-.52-.45zm8.25.079l.79.148v4.223l-.79-.152zm-13.695.07c-.02 0-.035-.004-.043 0-.059 0-.367.012-.367.012v.918s.226 0 .406-.02c.172-.011.41-.199.41-.558a.314.314 0 00-.058-.196c-.012-.02-.028-.027-.04-.039-.03-.027-.058-.054-.093-.07-.016-.008-.032-.012-.051-.02a.288.288 0 00-.094-.02c-.015-.003-.027-.007-.043-.007h-.027zm-6.133.203l1.078 3.996-.797.2-.25-1.06-.75.212-.222 1.12-.82.24 1.042-4.528zM35.63 8.5l.719.172 1 2.547v-2.27l.773.262v4.277l-.64-.25-1.11-2.918v2.617l-.742-.218zm-24.41.898v3.57l1.293-.48v.762l-2.063.738V9.7zm27.531.04l.77.273V14l-.77-.313zm-24.73.32l-.239 1.351.5-.109zm6.53.191c-.077 0-.452.031-.452.031v1.082s.3-.003.48-.03c.184-.044.402-.231.402-.63 0-.39-.359-.453-.43-.453zm6.212 3.055a.906.906 0 01.273.027h.004a.516.516 0 01.2.121c.062.051.116.114.183.188.082-.012.172-.016.262-.016.14.004.285.02.433.051l.106.023c.148.036.3.079.449.13.367.128.707.273 1.012.394.05.023.109.047.156.066-.043-.004-.086-.004-.125-.004-.113 0-.215.016-.32.028-.055.008-.11.004-.165.015-.164.024-.32.051-.472.082a8.815 8.815 0 01-.45.094c-.05.008-.097.008-.148.016-.129.015-.258.031-.383.02-.34-.012-.75-.04-1.136-.09-.391-.07-.782-.16-1.043-.282-.172.012-.399 0-.582.051-.18.05-.317.148-.328.398-.02.243.718.371 1.68.45.94.082 2.081.101 2.89.132.8.04 1.488.168 2 .368.52.203.87.472.992.77a1.715 1.715 0 01.117.882c-.05.34-.18.75-.418 1.34.68.86 1.031 1.87 1.192 2.777.168.922.125 1.742.047 2.262-.102.512-.09.832-.047 1.07.047.238.129.39.187.54.05.171.098.292.11.44.011.15-.012.329-.07.602.53.63.98.918 1.382 1.059.387.14.719.14 1.016.18-.297.46-.766.69-1.297.812-.266.059-.547.09-.824.105-.278.012-.551.012-.805.012.172.121.281.371.347.66.063.301.07.641.043.922a2.68 2.68 0 00.02.836c.047.262.11.453.18.524.058.07.14.168.168.3.05.13.05.297-.032.47a1.552 1.552 0 00-.078.222.608.608 0 00-.02.156.4.4 0 00.122.2c.058.07.129.152.2.234.05.097.089.207.089.367-.02.16-.078.34-.18.5-.101.148-.23.27-.36.277-.046.008-.097-.008-.144-.02-.023-.003-.043-.003-.066-.011a.604.604 0 01-.191-.113.649.649 0 01-.239-.422c-.02-.16 0-.32 0-.469a1.86 1.86 0 000-.422c-.011-.07-.023-.152-.039-.246-.012-.09-.027-.191-.039-.3a2.818 2.818 0 01-.031-.735c0-.254-.031-.469-.086-.66a1.697 1.697 0 00-.223-.496 1.932 1.932 0 00-.332-.375 3.669 3.669 0 00-.39-.297.847.847 0 01-.2.183c-.086.063-.191.133-.3.207-.11.078-.227.16-.34.243a3.076 3.076 0 00-.32.257 1.083 1.083 0 00-.258.313c-.078.125-.141.27-.203.418-.11.281-.188.582-.25.8.242.172.234.438.14.72-.098.269-.258.519-.34.652-.066.136-.11.207-.27.258-.148.039-.437.05-1 .05-.546-.011-.948-.133-1.218-.28-.27-.173-.422-.36-.48-.528-.06-.153-.118-.332-.207-.492a3.23 3.23 0 00-.325-.47c-.008.06-.02.15-.058.262a1.17 1.17 0 01-.2.348c-.09.13-.171.34-.25.55a3.317 3.317 0 00-.152.56c-.039.128-.11.199-.25.242a1.241 1.241 0 01-.223.015 4.43 4.43 0 01-.343-.027c-.242-.04-.352-.18-.371-.348v-.03c0-.044 0-.083.011-.134 0-.02-.004-.02.008-.02a.84.84 0 01.13-.34c.089-.148.25-.358.39-.558.16-.18.3-.37.37-.48.071-.11.15-.192.169-.27.023-.078.011-.14-.098-.222a2.062 2.062 0 01-.137-.078c-.015-.004-.027-.016-.043-.016-.003 0-.011.004-.02.008-.042.027-.1.097-.222.258-.12.14-.18.308-.277.5-.094.18-.211.39-.39.62-.192.239-.321.47-.403.68-.078.211-.129.39-.149.559-.03.152-.101.312-.152.469a1.55 1.55 0 00-.117.441c-.012.148.027.262.05.39a.925.925 0 01-.413.919 1.1 1.1 0 01-.29.101c-.038.008-.085.008-.124.012-.09.012-.172.023-.274.02-.3-.012-.48-.11-.59-.243a.519.519 0 01-.148-.386c0-.11.078-.27.207-.461.14-.18.332-.399.558-.621l.153-.16c.129-.188.2-.407.23-.61.059-.277.051-.547.059-.73 0-.168.121-.438.262-.72.14-.26.308-.519.43-.679.12-.148.128-.32.058-.492a.686.686 0 00-.379-.367.878.878 0 01-.379-.328c-.094-.141-.152-.282-.21-.422-.06-.13-.032-.29-.063-.418-.008-.133-.059-.242-.258-.274-.031-.008-.063-.008-.09-.008-.043 0-.074.016-.11.032-.015.004-.042.004-.058.015a.451.451 0 00-.145.141c-.097.133-.156.313-.25.46a2.593 2.593 0 00-.257.528c-.059.192-.11.453-.13.75-.01.32-.148.774-.331 1.172-.168.422-.367.77-.48.903-.118.128-.188.167-.278.23-.078.039-.16.105-.281.277l-.25.532c-.13.238-.168.55-.2.878-.039.32-.062.63-.109.84a.883.883 0 01-.433.551 1.16 1.16 0 01-.34.113c-.032.004-.07.004-.102.012a1.308 1.308 0 01-.406-.016c-.328-.05-.488-.218-.527-.417 0-.024-.012-.04-.012-.063 0-.129.05-.27.12-.41.04-.05.067-.11.11-.153.168-.199.399-.488.63-.796.21-.301.437-.63.62-.891.157-.25.239-.52.29-.79.058-.218.109-.468.218-.741.012-.047.04-.098.059-.149l.101-.242a6.31 6.31 0 00.262-.879c.09-.422.137-.867.16-1.308.02-.45.098-.86.192-1.23.046-.184.093-.364.14-.532.047-.164.09-.32.137-.457.039-.149.082-.313.125-.496a7.27 7.27 0 00.101-.578 6.78 6.78 0 00.141-1.168c.031-.36.152-.668.293-.942.137-.277.297-.52.398-.758.102-.238.16-.5.309-.96.152-.47.39-1.141.871-2.192.48-1.047 1.39-1.828 2.27-2.39a12 12 0 011.715-.91c.14-.067.257-.118.343-.157.16-.082.34-.129.52-.156.062-.012.12-.012.183-.016.149-.015.293-.027.438-.02.39.032.793.15 1.101.321a3.05 3.05 0 001.024.3c.328.052.598.048.75.06.187-.15.336-.262.387-.422a.295.295 0 00.015-.122.705.705 0 00-.113-.32 1.693 1.693 0 00-.145-.207c-.226-.309-.937-.469-1.859-.578-.918-.11-2.039-.14-3.059-.2a9.992 9.992 0 01-.695-.062c-.629-.082-1.05-.234-1.332-.418a1.185 1.185 0 01-.226-.21c-.18-.223-.239-.485-.215-.77.011-.39.23-.57.492-.68.258-.113.566-.121.797-.152.21-.04.379-.047.562-.059.2-.012.418-.031.778-.11.168-.027.3-.038.414-.046h.039zm.457 4.621c-.086 0-.184.027-.282.047-.042.008-.082.008-.125.02a3.2 3.2 0 00-.515.187c-.367.183-.75.43-1.059.7-.32.28-.68.519-.98.78-.301.262-.559.563-.692.953-.128.407-.316.918-.507 1.387-.18.48-.36.91-.47 1.13-.112.21-.331.663-.53 1.151-.004.012-.004.02-.012.032a7.431 7.431 0 00-.203.593c-.008.028-.02.055-.028.082a2.895 2.895 0 00-.082.532c0 .015-.007.039-.007.058 0 .02 0 .043.003.067a2.657 2.657 0 00-.011.246c0 .02.004.035.004.055.004.136.015.261.043.367.004.008 0 .02.004.027.027.078.07.14.12.18.016.015.036.011.051.02.032.015.059.042.094.042a.27.27 0 00.074-.011c.172-.032.243-.18.313-.32.078-.141.148-.27.348-.27.18 0 .28.02.351.058.059.043.106.094.195.153.082.039.192.129.305.172.04.015.082.03.125.03a.056.056 0 01.024-.007c.011 0 .02-.004.027-.008a.256.256 0 00.14-.094v-.004h.004a.478.478 0 01.348-.18.624.624 0 01.148-.003c.075.004.153.012.22.023.042.004.081.008.124.008a.774.774 0 00.207-.027c.102-.031.192-.11.282-.258.09-.16.199-.211.308-.223.031-.004.05 0 .078.004a.93.93 0 01.14.028c.134.191.263.449.345.691l.03.113c.02.067.04.13.052.188.007.043.011.074.015.113.008.063.02.125.012.168v.004c-.02.121-.078.332-.172.543-.098.21-.23.45-.379.64-.148.2-.34.481-.36.782v.027c0 .043.013.082.02.129.004.027.004.05.012.078.012.055.04.11.067.164.011.028.019.051.035.074.039.063.093.122.152.184.016.02.027.04.047.059.086.078.191.156.316.234-.004.078-.008.148-.008.207 0 .004.004.008.004.012a.54.54 0 00.047.238c.024.07.074.152.157.258.078.105.195.238.355.414.059.066.117.148.172.246.055.098.105.207.156.32.102.242.168.48.207.664.012.047.043.09.074.098a.042.042 0 00.02.004c.004 0 .004-.008.004-.008.031-.004.054-.02.062-.074.07-.172.184-.399.25-.75a4.18 4.18 0 00.09-.496l.012-.086c.02-.184.027-.395.031-.625 0-.024.004-.043.004-.067 0-.082 0-.168-.004-.257-.101.03-.238.07-.371.152a1.18 1.18 0 00-.371.328c-.004-.113.004-.246.012-.383.004-.047 0-.086.004-.133.011-.164.027-.335.046-.503.051-.36.102-.7.168-.872.063-.19.09-.28.121-.34a.637.637 0 01.172-.187.625.625 0 00.176-.383c.004-.015.004-.03.004-.05 0-.04-.012-.079-.02-.122v-.011c-.007-.024-.003-.047-.011-.07a.622.622 0 00-.113-.204c-.004-.004 0-.008-.004-.011a1.41 1.41 0 01-.282-.391c-.004-.008-.004-.012-.007-.02a.919.919 0 01-.04-.226.769.769 0 01.004-.164c.012-.149.16-.34.47-.508.32-.184.792-.332 1.44-.39.036-.008.055.003.075.015h.004c.007.004.015 0 .023.004l.004.004c.008.008.012.02.016.027.007.008.015.02.015.027 0 .04-.027.11-.11.149-.058.043-.198.129-.339.23-.16.11-.3.223-.367.301a.73.73 0 00-.2.469c0 .223.087.48.477.75.371.273.602.41.809.492h.004c.191.078.36.102.62.129-.077-.09-.28-.29-.488-.488-.05-.047-.101-.09-.152-.137a4.498 4.498 0 01-.234-.23c-.024-.032-.047-.055-.055-.075-.043-.07-.101-.16-.11-.258a.219.219 0 01.02-.097v-.004c.004-.008.004-.016.004-.023.008-.012.004-.024.012-.036h.004a.643.643 0 01.168-.191c.086-.066.168-.125.246-.188.074-.058.137-.117.191-.175a.879.879 0 00.242-.25 10.245 10.245 0 001.309.652c.148.05.32.129.461.238.148.102.277.23.379.36.078.125.219.246.394.347.176.102.387.188.618.254.117.035.242.063.367.082.023 0 .047 0 .07.004.102.012.207.024.313.024.007 0 .015.003.023.003.012 0 .02-.003.027-.003.215-.004.43-.028.63-.09h-.005a4.945 4.945 0 01-.324-.133 5.005 5.005 0 01-.46-.246 4.643 4.643 0 01-.509-.344 2.288 2.288 0 01-.421-.426c-.16-.23-.27-.32-.372-.39h-.003c-.11-.07-.208-.09-.348-.133-.14-.059-.418-.137-.707-.297-.281-.148-.578-.371-.75-.7-.18-.308-.3-.769-.402-1.202-.11-.407-.18-.797-.258-.957-.078-.149-.211-.309-.332-.5a1.9 1.9 0 01-.258-.739c-.031-.312-.09-.632-.14-.914-.06-.289-.13-.527-.22-.687-.101-.172-.171-.442-.242-.692-.07-.261-.129-.5-.218-.609a3.154 3.154 0 00-.473-.5 2.579 2.579 0 00-.363-.246 1.076 1.076 0 00-.399-.125c-.02 0-.043-.004-.066-.004z"/></svg>