<svg xmlns="http://www.w3.org/2000/svg" viewBox="0 0 50 50" width="500" height="500"><path d="M24.012 2c-5.395 0-10.633.758-14.203 1.879-4.79 1.508-5.786 2.16-5.786 5.441 0 17.242 6.79 26.828 12.793 32.575 3.16 3.027 6.086 5.218 7.196 5.218 1.11 0 4.031-2.191 7.191-5.218C37.211 36.148 44 26.562 44 9.32c0-3.28-.996-3.933-5.785-5.441C34.645 2.758 29.406 2 24.012 2zm0 2c4.96 0 10.047.668 13.601 1.785C42 7.165 42 7.328 42 9.32c0 13.102-3.984 23.285-12.18 31.133-2.988 2.86-5.035 4.281-5.808 4.613-.77-.332-2.82-1.754-5.809-4.613-8.195-7.848-12.18-18.031-12.18-31.133 0-1.992 0-2.156 4.383-3.535C13.965 4.668 19.051 4 24.012 4zm-1.59 3.324c-.727 0-1.317.707-1.317 2.184 0 1.726.59 2.183 1.317 2.183.73 0 1.32-.722 1.32-2.183 0-1.457-.59-2.184-1.32-2.184zm1.777.043v4.254h.754l.012-1.762h.289l.648 1.797.832.035-.672-1.957s.614-.222.614-1.125c0-.902-.727-1.168-1.004-1.18a223.9 223.9 0 00-1.473-.062zm4.024.078c-.856 0-1.254.825-1.254 2.04 0 1.218.304 2.359 1.426 2.359 1.12 0 1.12-1.028 1.12-1.23v-.989l-1.206-.102v.739l.43.031s.007.152.007.242c0 .094-.004.555-.394.555-.461 0-.625-.762-.625-1.52 0-.754.23-1.355.57-1.355.336 0 .45.668.45.668l.776-.137s-.097-1.3-1.3-1.3zm-8.594.106c-.524.027-1.3.105-1.3.105v4.239s1.233-.098 1.378-.114c.148-.015 1.043-.191 1.043-1.41-.004 0 .008-.66-.469-.879.203-.152.403-.332.403-.91 0-.578-.434-1.062-1.055-1.031zm10.453.152v4.246l.742.114.016-1.868.969.13-.016 1.85.8.141V8.102l-.784-.157V9.57l-.954-.144v-1.61zm-12.363.008l-.778.098-.691 2.566-.719-2.348-.754.168c-.004 0-.004 4.242.004 4.23l.711-.128-.05-2.352.777 2.567.789-2.528-.055 2.082.766-.082zm4.703.383c.312 0 .562.476.562 1.437 0 .961-.25 1.438-.562 1.438-.309 0-.563-.301-.563-1.438 0-.972.254-1.437.563-1.437zm2.531.039h.45c.195 0 .519.117.519.453 0 .34-.172.57-.414.57h-.555zm8.242.094v4.21l.793.153V8.375zm-13.738.062c.063-.004.453-.008.453.352 0 .355-.238.546-.414.562-.176.016-.406.016-.406.016l.004-.914s.3-.016.363-.016zm-6.086.203l-.726.18-1.032 4.531.813-.242.23-1.121.739-.211.25 1.062.808-.203zM34.63 8.5v4.219l.738.222v-2.62l1.113 2.917.641.246V9.207l-.77-.254v2.266l-1.007-2.547zm-24.406.898l-.778.297v4.293l2.067-.738v-.762l-1.29.48zm27.53.047v4.242l.77.313V9.71zm-24.737.313l.26 1.242-.5.113zm6.53.195c.075 0 .434.055.434.453 0 .395-.222.586-.402.621-.176.032-.473.036-.473.036V9.976s.372-.024.442-.024zM25.755 13a3.25 3.25 0 00-.442.05 4.702 4.702 0 01-.78.11c-.184.012-.352.02-.563.059-.227.031-.54.039-.797.152-.262.11-.48.29-.492.68-.032.379.078.719.441.98.379.25 1 .43 2.031.48 1.02.06 2.137.09 3.059.2.922.11 1.629.27 1.86.578.23.3.288.5.241.648-.05.16-.203.274-.39.422-.152-.011-.422-.007-.75-.058a3.03 3.03 0 01-1.02-.301 2.825 2.825 0 00-1.101-.32c-.39-.02-.801.02-1.14.191-.352.156-1.192.5-2.063 1.067-.88.562-1.79 1.343-2.27 2.39-.476 1.05-.719 1.723-.867 2.192-.148.46-.211.722-.309.96-.101.239-.261.48-.402.758a2.54 2.54 0 00-.29.942c-.01.351-.062.77-.14 1.168a9.531 9.531 0 01-.23 1.074c-.09.277-.18.617-.277.988a6.063 6.063 0 00-.192 1.23 8.45 8.45 0 01-.16 1.31c-.07.32-.16.609-.262.878-.039.094-.07.172-.101.242-.02.051-.047.102-.059.149-.11.273-.16.523-.219.742-.05.27-.133.539-.289.789l-.62.89c-.231.31-.462.598-.63.797-.043.043-.07.102-.11.153a.96.96 0 00-.12.41c0 .02.012.04.012.063.039.199.199.367.527.417.328.07.62.008.848-.109a.883.883 0 00.433-.55c.047-.212.07-.52.11-.84.03-.329.07-.641.199-.883l.25-.528c.12-.172.203-.242.28-.28.09-.06.161-.099.278-.227.114-.133.313-.481.48-.903.184-.398.321-.851.333-1.172.02-.297.07-.558.129-.75.07-.207.16-.367.258-.527.093-.148.152-.332.25-.461.082-.129.203-.219.402-.18.2.032.25.14.258.27.03.129.004.289.062.422.059.136.117.277.211.418.09.129.2.25.379.332.172.066.32.21.379.367.07.172.062.34-.059.492a5.37 5.37 0 00-.43.68c-.14.281-.261.547-.261.719-.008.18 0 .449-.059.73a1.52 1.52 0 01-.23.61l-.152.16a6.127 6.127 0 00-.56.62c-.128.192-.206.348-.206.458a.527.527 0 00.148.39c.11.133.29.23.59.242.281.012.508-.039.688-.132a.925.925 0 00.414-.918c-.024-.13-.063-.242-.051-.39a1.55 1.55 0 01.117-.442c.05-.157.121-.317.152-.47.02-.167.07-.347.149-.558.082-.21.21-.441.402-.68.18-.23.297-.44.39-.62.099-.192.157-.36.278-.5.121-.16.18-.23.223-.258.047-.024.086.027.2.086.108.082.12.144.097.222-.02.078-.098.16-.168.27-.07.11-.211.3-.371.48-.14.2-.301.41-.39.559a.84.84 0 00-.13.34c-.012 0-.008 0-.008.02-.011.05-.011.09-.011.132v.031c.02.168.129.309.37.348.25.031.43.04.567.012.14-.043.211-.114.25-.242.024-.141.074-.348.152-.56.079-.21.16-.42.25-.55a1.17 1.17 0 00.2-.347c.039-.114.05-.204.058-.262.121.14.23.308.325.469.09.16.148.34.207.492.058.168.21.355.48.527.27.148.672.27 1.219.281.562 0 .851-.011 1-.05.16-.051.203-.122.27-.258.081-.133.241-.383.34-.653.093-.28.1-.547-.142-.718.063-.22.141-.52.25-.801.122-.3.262-.57.465-.73.188-.18.438-.34.66-.5.22-.15.418-.278.5-.391.27.183.528.383.72.672.187.289.308.648.308 1.16-.031.262 0 .508.031.73.027.219.059.41.078.547.02.133.012.281 0 .422 0 .148-.02.313 0 .469a.64.64 0 00.238.422.55.55 0 00.403.148c.129-.012.258-.129.36-.277.1-.16.16-.344.179-.5 0-.16-.04-.27-.09-.371-.07-.078-.14-.16-.2-.23a.4.4 0 01-.12-.2c0-.09.023-.2.101-.383a.602.602 0 00.028-.469.675.675 0 00-.168-.297c-.07-.07-.13-.261-.18-.523a2.963 2.963 0 01-.02-.84 3.04 3.04 0 00-.042-.918c-.067-.293-.176-.543-.348-.66.512 0 1.101 0 1.629-.121.531-.121 1-.352 1.3-.813-.3-.039-.628-.039-1.019-.175-.398-.14-.852-.434-1.379-1.063.059-.27.078-.449.066-.601-.007-.149-.058-.266-.109-.438-.058-.148-.137-.3-.187-.539-.04-.242-.051-.558.047-1.07.082-.52.124-1.34-.047-2.262-.16-.91-.512-1.918-1.192-2.777.238-.594.371-1 .422-1.34.04-.332 0-.594-.121-.883-.121-.3-.469-.57-.988-.77-.512-.199-1.203-.328-2-.367-.813-.03-1.953-.054-2.89-.132-.962-.079-1.704-.211-1.684-.45.011-.25.152-.351.332-.398.18-.05.41-.043.578-.05.261.116.652.21 1.043.28.39.047.797.078 1.14.086.317.032.637-.05.98-.129.329-.058.68-.14 1.079-.12-.328-.13-.738-.31-1.168-.458-.422-.152-.871-.25-1.25-.191-.133-.149-.223-.25-.383-.309a.975.975 0 00-.285-.031zm.535 4.629c.27.023.531.191.762.371.219.191.39.39.469.5.09.11.152.348.218.61.07.25.14.519.242.69.09.16.16.4.22.688.05.282.109.602.14.914a1.9 1.9 0 00.258.739c.12.191.254.351.332.5.078.16.148.55.258.957.101.433.222.894.402 1.203.172.328.469.55.75.699.289.16.57.242.71.3.141.04.24.06.352.13.098.07.207.16.368.39.23.309.59.57.93.77.327.2.652.332.788.379-.457.14-.988.11-1.425-.02-.461-.129-.852-.351-1.012-.601a1.754 1.754 0 00-.38-.36 1.622 1.622 0 00-.46-.238 10.245 10.245 0 01-1.309-.652.937.937 0 01-.242.25c-.11.113-.27.234-.441.363-.18.148-.219.258-.207.352.008.097.066.187.11.257.038.07.237.258.44.442.208.199.41.398.489.488-.262-.031-.43-.05-.621-.129-.211-.082-.442-.219-.809-.492-.39-.27-.48-.527-.48-.75a.75.75 0 01.199-.469c.07-.078.21-.191.37-.3.142-.102.282-.188.34-.231.079-.04.11-.11.11-.149-.012-.039-.05-.09-.14-.078-.649.059-1.122.207-1.442.387-.308.172-.457.363-.469.512-.02.14-.007.27.043.41.059.121.137.25.278.387.12.14.16.3.148.472a.605.605 0 01-.176.38.62.62 0 00-.172.19 2.13 2.13 0 00-.12.34c-.07.172-.122.508-.172.868-.04.363-.067.742-.06 1.023a1.16 1.16 0 01.372-.332c.129-.078.27-.117.371-.148.02.68-.039 1.168-.133 1.53-.066.349-.18.579-.25.75-.008.067-.039.09-.086.079-.03-.012-.062-.05-.074-.098a4.17 4.17 0 00-.207-.664c-.101-.226-.21-.437-.332-.566-.32-.352-.46-.531-.508-.672-.07-.16-.05-.27-.043-.46-.52-.31-.66-.65-.648-.95.02-.3.21-.578.36-.777a3.65 3.65 0 00.378-.641c.094-.211.152-.422.172-.543.02-.117-.031-.352-.11-.59-.078-.238-.21-.5-.34-.691-.038-.008-.12-.04-.222-.028-.11.012-.219.059-.308.22-.09.148-.18.23-.282.26a.848.848 0 01-.328.02c-.11-.02-.25-.039-.37-.02a.479.479 0 00-.352.18c-.098.13-.208.13-.317.082-.113-.042-.223-.132-.3-.171-.09-.059-.141-.11-.2-.153-.07-.039-.172-.058-.351-.058-.2 0-.27.129-.348.27-.07.14-.14.288-.313.32-.172.039-.28-.06-.34-.23-.05-.18-.058-.43-.039-.7-.02-.352.13-.871.332-1.36.2-.488.418-.94.528-1.152.11-.219.289-.648.473-1.129.187-.469.378-.98.507-1.387.13-.39.39-.69.692-.953.297-.261.66-.5.976-.78.313-.27.692-.517 1.063-.7.37-.168.719-.27.988-.25z"/></svg>