<svg xmlns="http://www.w3.org/2000/svg" width="48" height="48" fill-rule="evenodd" clip-rule="evenodd"><path fill="#ffc107" d="M37.5 4.343C34.105 3.275 29.128 2.558 24 2.558s-10.105.717-13.5 1.785C5.949 5.775 5 6.399 5 9.517c0 16.39 6.455 25.501 12.163 30.965 3.004 2.875 5.784 4.961 6.837 4.961s3.833-2.085 6.837-4.961C36.545 35.018 43 25.907 43 9.517c0-3.118-.949-3.742-5.5-5.174z"/><path fill="#ffd54f" d="M24.009 44.442c-.449-.036-2.543-1.227-6.154-4.683C9.878 32.123 6 22.231 6 9.517c0-2.37.297-2.803 4.8-4.22 3.462-1.089 8.397-1.739 13.2-1.739l.009 40.884z"/><path fill="#212121" d="M29.454 39.037c-2.78 2.661-4.703 4.007-5.454 4.35-.751-.343-2.674-1.689-5.454-4.35C10.777 31.6 7 21.944 7 9.517c0-1.827 0-1.976 4.1-3.266 3.37-1.06 8.193-1.693 12.9-1.693s9.53.633 12.9 1.693C41 7.541 41 7.69 41 9.517c0 12.427-3.777 22.083-11.546 29.52z"/><path fill="#424242" d="M24 43.387c-.751-.343-2.674-1.689-5.454-4.35C10.777 31.6 7 21.944 7 9.517c0-1.827 0-1.976 4.1-3.266 3.37-1.06 8.193-1.693 12.9-1.693 0 0 .751 38.486 0 38.829z"/><path fill="#ffca28" d="M9.448 9.266l.775-.296v3.571l1.289-.479v.758l-2.064.74V9.266zm3.924-1.202l-.726.177-1.032 4.531.814-.242.226-1.121.742-.21.25 1.064.806-.202-1.08-3.997zm-.597 2.62l.242-1.354.258 1.241-.5.113zm2.008 1.314l.709-.129-.048-2.354.774 2.564.79-2.523-.056 2.08.766-.081V7.282l-.774.097-.694 2.563-.717-2.346-.758.169c0 .001 0 4.241.008 4.233zm5.498-2.934c.202-.153.403-.331.403-.911s-.435-1.064-1.056-1.032c-.524.027-1.298.105-1.298.105v4.24s1.233-.097 1.379-.113c.145-.016 1.04-.193 1.04-1.411-.001 0 .007-.661-.468-.878zm-1.189-1.189l.366-.017c.063-.003.453-.007.453.352s-.24.547-.415.564c-.174.017-.408.014-.408.014l.004-.913zm.487 2.72c-.177.032-.476.039-.476.039V9.547s.371-.024.443-.024c.073 0 .435.056.435.451.001.396-.224.589-.402.621zm2.844-3.701c-.729 0-1.32.705-1.32 2.185 0 1.726.591 2.185 1.32 2.185.729 0 1.32-.727 1.32-2.185 0-1.459-.591-2.185-1.32-2.185zm0 3.644c-.31 0-.561-.302-.561-1.437 0-.973.251-1.437.561-1.437.31 0 .561.478.561 1.437 0 .959-.251 1.437-.561 1.437zm3.64-1.234s.614-.22.614-1.124c0-.904-.73-1.17-1.008-1.182-.278-.012-1.471-.058-1.471-.058v4.252h.753l.012-1.761h.29l.649 1.796.834.035-.673-1.958zm-.556-.579h-.556v-1.02h.452c.197 0 .521.116.521.452s-.174.568-.417.568zm3.231 1.136l-.431-.029v-.74l1.208.101v.992c0 .201 0 1.229-1.121 1.229s-1.423-1.143-1.423-2.358.395-2.041 1.251-2.041c1.205 0 1.301 1.301 1.301 1.301l-.776.137s-.115-.668-.453-.668-.568.604-.568 1.358c0 .755.165 1.517.625 1.517.392 0 .395-.46.395-.553-.001-.095-.008-.246-.008-.246zm1.345-2.59v4.246l.741.114.014-1.866.969.128-.014 1.852.798.143V7.67l-.784-.156v1.624l-.954-.143V7.386zm3.113.523v4.214l.792.15V7.944zm1.433.278v4.215l.739.224V9.89l1.112 2.921.642.246V8.778l-.77-.257v2.268l-1.006-2.546zm3.124.941v4.247l.77.31V9.281zM26.57 16.39a2.538 2.538 0 00-.977-.279 1.984 1.984 0 00-.999.163c-.301.143-1.042.441-1.811.934-.77.494-1.568 1.183-1.986 2.107-.418.924-.633 1.509-.766 1.916-.133.407-.183.636-.272.848-.089.212-.231.426-.356.666-.125.24-.231.505-.246.819a8.729 8.729 0 01-.124 1.032 9.57 9.57 0 01-.208.94c-.072.252-.164.542-.244.869-.08.326-.147.686-.166 1.079a7.231 7.231 0 01-.145 1.149 4.745 4.745 0 01-.313.993c-.132.289-.184.542-.239.78-.056.239-.116.462-.265.691a17.715 17.715 0 01-1.092 1.481c-.146.17-.225.372-.194.546.031.174.171.318.463.372.291.053.549.007.745-.101a.757.757 0 00.381-.474c.048-.194.062-.469.091-.748.028-.279.071-.562.18-.773l.219-.462a.81.81 0 01.248-.253c.071-.046.141-.082.245-.195.103-.113.276-.429.426-.786.15-.356.277-.753.29-1.028.014-.275.054-.489.112-.669a1.92 1.92 0 01.218-.457c.085-.134.141-.288.221-.402.079-.115.181-.188.356-.16.175.028.22.119.234.233.014.114-.002.251.051.372.053.12.105.251.183.368.077.117.181.22.334.287.154.066.275.19.332.331a.42.42 0 01-.055.43 4.257 4.257 0 00-.378.597c-.124.235-.224.476-.232.633-.007.157.001.394-.041.638-.041.244-.132.495-.337.682a3.34 3.34 0 00-.487.542c-.116.166-.182.311-.186.409a.479.479 0 00.125.336c.098.108.26.195.515.207.254.012.452-.027.604-.113a.742.742 0 00.323-.392.74.74 0 00.044-.416c-.019-.114-.054-.214-.047-.332.006-.118.052-.254.102-.393.051-.14.107-.285.134-.421a2.313 2.313 0 01.483-1.078c.167-.209.264-.391.346-.554.082-.163.147-.308.252-.441.105-.132.148-.2.187-.217.04-.018.078.014.173.077.095.064.112.124.089.191-.023.067-.086.143-.149.239-.063.095-.189.256-.32.427a7.307 7.307 0 00-.352.485.743.743 0 00-.125.457c.017.148.109.271.323.301.215.03.381.038.5.009.119-.028.191-.094.216-.211.026-.117.074-.301.137-.485.063-.184.14-.367.224-.48.084-.114.138-.22.172-.312a.787.787 0 00.051-.229c.112.124.202.266.279.412.076.147.137.297.189.437.052.141.181.314.42.454.238.14.586.245 1.076.249.491.005.736-.003.875-.041.139-.037.172-.105.236-.219s.213-.344.293-.581c.081-.237.093-.483-.116-.631.049-.194.12-.456.221-.707.1-.251.23-.491.394-.64.164-.15.387-.296.585-.429.198-.133.371-.253.434-.348.248.15.474.333.638.587.165.254.266.579.265 1.012-.012.235.007.457.032.65s.055.357.069.476c.014.119.008.246.001.379-.006.132-.013.27 0 .408.013.139.094.27.203.364.108.094.243.15.361.136.119-.013.232-.116.317-.25a.942.942 0 00.148-.436.525.525 0 00-.078-.319c-.05-.082-.116-.143-.171-.205-.056-.062-.093-.113-.099-.187-.006-.074.018-.171.085-.325a.587.587 0 00.029-.407.716.716 0 00-.153-.268c-.056-.062-.116-.232-.155-.451a2.574 2.574 0 01-.023-.739 2.5 2.5 0 00-.034-.808c-.056-.259-.158-.48-.31-.586.451.002.966-.002 1.432-.107.466-.105.883-.311 1.139-.712-.254-.032-.549-.027-.895-.152-.347-.125-.746-.381-1.21-.935.051-.233.068-.39.06-.523a1.269 1.269 0 00-.094-.383c-.052-.141-.124-.272-.163-.48-.039-.208-.045-.494.037-.943.081-.448.106-1.175-.036-1.979s-.452-1.685-1.043-2.442c.202-.522.318-.88.357-1.173a1.438 1.438 0 00-.104-.782c-.105-.261-.408-.492-.86-.667-.453-.174-1.055-.292-1.759-.327-.705-.034-1.714-.054-2.545-.119-.83-.065-1.482-.175-1.472-.392.011-.216.133-.308.292-.35.159-.041.354-.031.512-.044.23.11.56.184.906.236.346.051.707.079 1.001.093.294.014.571-.051.864-.116.292-.064.6-.128.952-.111-.289-.113-.653-.278-1.03-.405-.377-.126-.765-.214-1.1-.171-.112-.124-.195-.217-.33-.262-.136-.046-.322-.046-.638.018a5.154 5.154 0 01-.682.095c-.167.011-.305.014-.502.044s-.473.046-.703.138c-.23.092-.415.26-.431.594-.016.334.077.634.399.861.323.227.874.382 1.775.426.9.044 1.879.082 2.684.175.805.093 1.435.242 1.638.507.202.266.253.436.212.571-.041.136-.174.238-.337.367-.137-.006-.382-.008-.665-.047a2.678 2.678 0 01-.889-.265"/><path fill="#ffecb3" d="M23.216 29.328c-.029.191-.122.663-.119.771 0 0-.164.004-.24.1-.073.096-.287.125-.367.016 0 0-.181-.147.03-.293.211-.142.505-.557.529-.615.025-.057.197-.173.167.021zm-.978 1.073c-.031-.008-.075.012-.085.042-.017.035-.017.108.02.117.045.013.091-.041.109-.085.01-.025-.016-.067-.044-.074zm-1.744 2.338a.093.093 0 00-.105.08c-.008.051.025.1.077.108.051.008.1-.028.108-.079a.096.096 0 00-.08-.109zm-.448-.474c-.06-.009-.109.009-.114.044-.005.031.037.064.097.073.057.009.106-.01.111-.041.004-.034-.037-.067-.094-.076zm1.097-2.639c-.058.134-.071.464-.104.675-.032.208.118.161.193.126.079-.037.331-.45.299-.787-.029-.341-.388-.014-.388-.014zm-.522 1.763c-.278.1-.105.281-.333.461-.232.18-.103.27-.103.27s.079.263.204.305c.124.043.354-.123.541-.106.187.017.135-.253.158-.404.024-.154-.083-.24-.162-.503-.079-.262-.305-.023-.305-.023zm-2.809-1.755c-.01.199.236.092.214-.025-.023-.114.067-.435.067-.435a.58.58 0 00-.281.46zm-1.196 3.51c-.048-.007-.096.017-.102.054-.005.034.033.072.081.079.051.008.096-.017.101-.051.006-.036-.029-.074-.08-.082zm.362-1.176c-.05.056-.658.738-.808.819-.15.082-.096.209-.034.274.062.068.204-.079.204-.079.137-.413.376-.414.629-.393.253.024.385-.156.395-.429.01-.268-.337-.249-.386-.192zm9.794-4.995c-.001.046.051.087.091.11.024.013.077.009.078-.017 0-.055-.025-.12-.076-.149-.029-.018-.093.019-.093.056zm-.632.299c-.046.034-.064.168-.009.171.087.005.198-.074.202-.158.001-.064-.143-.054-.193-.013zm.113-.413c.029-.019.021-.081-.008-.1-.05-.034-.133-.064-.185-.028-.043.031-.052.132-.007.159.059.037.145.007.2-.031zm2.139-1.765c-.099-.018-.118.101-.019.125.17.047.37.075.494.251.095.137.234-.066.093-.169-.162-.116-.378-.172-.568-.207zm1.642 2.204c-.074-.011-.201-.133-.201-.133-.065-.185-.118.046-.126.1-.008.054.181.185.301.204.116.018.097-.16.026-.171zm-.005-.516c-.174-.12-.279-.346-.345-.56-.069-.212-.082-.243-.21-.262-.125-.019-.197.276-.22.426-.024.154.117.018.117.018.031-.141.119-.054.155-.002.038.052.219.375.264.501.044.125.413-.001.239-.121zm.526-1.538c-.295-.175-.61-.404-.808-.669-.148-.199-.244-.292-.335-.347-.09-.055-.175-.071-.3-.117-.125-.045-.371-.121-.625-.257-.253-.135-.514-.33-.667-.613-.153-.283-.261-.687-.348-1.055-.087-.368-.154-.701-.226-.842-.071-.141-.182-.274-.285-.442a1.588 1.588 0 01-.231-.646c-.035-.277-.076-.56-.127-.808-.052-.248-.115-.463-.196-.605-.081-.142-.143-.381-.203-.608-.06-.227-.119-.441-.193-.533a3.218 3.218 0 00-.42-.434c-.193-.162-.427-.306-.661-.328-.234-.021-.547.067-.871.221a4.167 4.167 0 00-.935.616c-.277.242-.586.449-.855.682-.269.233-.497.492-.612.84-.115.349-.28.804-.44 1.219-.16.415-.316.791-.414.983-.097.192-.298.59-.469 1.017-.171.428-.31.883-.286 1.189-.022.244-.013.467.039.619.051.152.146.236.294.204s.209-.162.274-.284c.065-.123.134-.237.301-.239.167-.002.249.022.309.057.059.035.096.081.172.124.076.043.171.116.267.153.096.036.194.036.278-.068a.448.448 0 01.307-.162c.113-.014.231.001.328.016a.597.597 0 00.288-.013.476.476 0 00.254-.237c.075-.134.175-.178.264-.186a.442.442 0 01.195.032c.12.163.227.39.299.602.073.213.113.411.097.519a2.02 2.02 0 01-.151.472 2.564 2.564 0 01-.332.567c-.136.17-.3.413-.315.681-.015.267.117.559.575.827-.009.177-.028.274.024.404.052.131.177.294.456.603.103.104.204.295.288.499.083.203.148.418.181.567.012.05.042.083.073.091.03.007.061-.01.073-.065.057-.159.15-.359.224-.67.074-.312.13-.734.11-1.34a1.481 1.481 0 00-.328.136.952.952 0 00-.32.285 6.432 6.432 0 01.051-.893c.037-.318.091-.616.148-.77.057-.155.08-.232.11-.29a.594.594 0 01.148-.17.527.527 0 00.154-.337.536.536 0 00-.137-.41 1.228 1.228 0 01-.236-.349.682.682 0 01-.044-.354c.016-.127.147-.298.419-.449.272-.152.686-.284 1.267-.334.079-.006.117.025.119.067.003.042-.029.094-.089.131-.06.036-.187.119-.315.209-.127.09-.254.187-.316.253a.663.663 0 00-.175.412c-.007.194.085.43.417.662.332.233.534.359.71.431.176.073.324.092.548.113-.064-.082-.25-.256-.428-.424-.178-.168-.349-.332-.385-.393-.037-.061-.092-.132-.1-.219-.008-.086.031-.188.184-.308s.286-.227.388-.318c.103-.091.175-.167.207-.224.134.075.353.195.573.306.22.112.441.216.576.261.135.046.279.119.409.209.13.091.247.2.33.319.151.219.488.417.885.53.398.113.858.141 1.257.017a4.479 4.479 0 01-.692-.335z"/></svg>