<svg xmlns="http://www.w3.org/2000/svg" width="64" height="64" fill-rule="evenodd" clip-rule="evenodd"><linearGradient id="A7EXgU1zfKmINu_ywwHp9a" x1="32" x2="32" y1="6" y2="58" gradientUnits="userSpaceOnUse" spreadMethod="reflect"><stop offset="0" stop-color="#1a6dff"/><stop offset="1" stop-color="#c822ff"/></linearGradient><path fill="url(#A7EXgU1zfKmINu_ywwHp9a)" d="M32 8c5.738 0 11.623.775 15.741 2.072C53 11.729 53 12.038 53 14.438c0 15.191-4.615 27.001-14.108 36.103-3.634 3.484-6.062 5.123-6.892 5.428-.83-.306-3.258-1.944-6.892-5.428C15.615 41.439 11 29.63 11 14.438c0-2.401 0-2.709 5.259-4.366C20.377 8.775 26.262 8 32 8m0-2c-6.207 0-12.232.87-16.342 2.165C10.149 9.901 9 10.658 9 14.438c0 19.874 7.814 30.922 14.724 37.547C27.36 55.471 30.725 58 32 58s4.64-2.529 8.276-6.015C47.186 45.36 55 34.313 55 14.438c0-3.78-1.149-4.538-6.658-6.274C44.232 6.87 38.207 6 32 6z"/><linearGradient id="A7EXgU1zfKmINu_ywwHp9b" x1="14.314" x2="14.314" y1="6.294" y2="57.542" gradientUnits="userSpaceOnUse" spreadMethod="reflect"><stop offset="0" stop-color="#1a6dff"/><stop offset="1" stop-color="#c822ff"/></linearGradient><path fill="url(#A7EXgU1zfKmINu_ywwHp9b)" d="M12.964 13.369l1.014-.387v4.671l1.686-.627v.991l-2.7.968v-5.616z"/><linearGradient id="A7EXgU1zfKmINu_ywwHp9c" x1="17.654" x2="17.654" y1="6.359" y2="57.554" gradientUnits="userSpaceOnUse" spreadMethod="reflect"><stop offset="0" stop-color="#1a6dff"/><stop offset="1" stop-color="#c822ff"/></linearGradient><path fill="url(#A7EXgU1zfKmINu_ywwHp9c)" d="M18.097 11.797l-.949.232-1.35 5.927 1.065-.316.295-1.466.97-.274.327 1.392 1.055-.264-1.413-5.231zm-.78 3.427l.316-1.772.337 1.624-.653.148z"/><linearGradient id="A7EXgU1zfKmINu_ywwHp9d" x1="21.857" x2="21.857" y1="6.336" y2="57.443" gradientUnits="userSpaceOnUse" spreadMethod="reflect"><stop offset="0" stop-color="#1a6dff"/><stop offset="1" stop-color="#c822ff"/></linearGradient><path fill="url(#A7EXgU1zfKmINu_ywwHp9d)" d="M19.943 16.943l.928-.169-.063-3.079 1.012 3.354 1.034-3.301-.074 2.721 1.002-.105v-5.589l-1.013.125-.907 3.354-.939-3.069-.991.221c0 .001 0 5.548.011 5.537z"/><linearGradient id="A7EXgU1zfKmINu_ywwHp9e" x1="26.165" x2="26.165" y1="6.311" y2="57.501" gradientUnits="userSpaceOnUse" spreadMethod="reflect"><stop offset="0" stop-color="#1a6dff"/><stop offset="1" stop-color="#c822ff"/></linearGradient><path fill="url(#A7EXgU1zfKmINu_ywwHp9e)" d="M27.135 13.105c.264-.2.527-.432.527-1.192 0-.759-.569-1.392-1.382-1.35-.685.036-1.698.137-1.698.137v5.547s1.614-.127 1.803-.148c.19-.021 1.36-.253 1.36-1.846.002.001.013-.864-.61-1.148zm-1.554-1.556s.397-.018.479-.023c.082-.005.593-.009.593.46 0 .47-.315.716-.542.738-.228.023-.533.018-.533.018l.003-1.193zm.637 3.559a5.223 5.223 0 01-.622.051v-1.422s.485-.032.58-.032c.095 0 .569.074.569.591s-.295.77-.527.812z"/><linearGradient id="A7EXgU1zfKmINu_ywwHp9f" x1="29.938" x2="29.938" y1="6.266" y2="57.506" gradientUnits="userSpaceOnUse" spreadMethod="reflect"><stop offset="0" stop-color="#1a6dff"/><stop offset="1" stop-color="#c822ff"/></linearGradient><path fill="url(#A7EXgU1zfKmINu_ywwHp9f)" d="M29.938 10.266c-.954 0-1.727.923-1.727 2.859 0 2.258.773 2.859 1.727 2.859s1.727-.951 1.727-2.859c-.001-1.908-.774-2.859-1.727-2.859zm0 4.767c-.405 0-.734-.395-.734-1.88 0-1.273.329-1.88.734-1.88.405 0 .734.625.734 1.88s-.329 1.88-.734 1.88z"/><linearGradient id="A7EXgU1zfKmINu_ywwHp9g" x1="33.919" x2="33.919" y1="6.327" y2="57.639" gradientUnits="userSpaceOnUse" spreadMethod="reflect"><stop offset="0" stop-color="#1a6dff"/><stop offset="1" stop-color="#c822ff"/></linearGradient><path fill="url(#A7EXgU1zfKmINu_ywwHp9g)" d="M34.7 13.419s.803-.288.803-1.47-.955-1.531-1.318-1.546l-1.925-.076v5.562h.985l.015-2.304h.379l.849 2.349 1.091.045-.879-2.56zm-.728-.758h-.727v-1.334h.591c.258 0 .682.152.682.591 0 .44-.227.743-.546.743z"/><linearGradient id="A7EXgU1zfKmINu_ywwHp9h" x1="37.555" x2="37.555" y1="6.362" y2="57.802" gradientUnits="userSpaceOnUse" spreadMethod="reflect"><stop offset="0" stop-color="#1a6dff"/><stop offset="1" stop-color="#c822ff"/></linearGradient><path fill="url(#A7EXgU1zfKmINu_ywwHp9h)" d="M38.2 14.148l-.564-.038v-.968l1.58.132v1.298c0 .264 0 1.608-1.467 1.608s-1.862-1.495-1.862-3.084.517-2.67 1.636-2.67c1.576 0 1.702 1.702 1.702 1.702l-1.015.179s-.15-.874-.592-.874-.743.79-.743 1.777.216 1.984.818 1.984c.513 0 .517-.602.517-.724-.001-.125-.01-.322-.01-.322z"/><linearGradient id="A7EXgU1zfKmINu_ywwHp9i" x1="41.599" x2="41.599" y1="6.385" y2="57.898" gradientUnits="userSpaceOnUse" spreadMethod="reflect"><stop offset="0" stop-color="#1a6dff"/><stop offset="1" stop-color="#c822ff"/></linearGradient><path fill="url(#A7EXgU1zfKmINu_ywwHp9i)" d="M39.959 10.76v5.554l.969.15.019-2.442 1.267.168-.018 2.423 1.043.186v-5.517l-1.025-.205v2.125l-1.249-.187V10.91z"/><linearGradient id="A7EXgU1zfKmINu_ywwHp9j" x1="44.549" x2="44.549" y1="6.381" y2="57.628" gradientUnits="userSpaceOnUse" spreadMethod="reflect"><stop offset="0" stop-color="#1a6dff"/><stop offset="1" stop-color="#c822ff"/></linearGradient><path fill="url(#A7EXgU1zfKmINu_ywwHp9j)" d="M44.031 11.443v5.514l1.036.196v-5.514z"/><linearGradient id="A7EXgU1zfKmINu_ywwHp9k" x1="47.536" x2="47.536" y1="6.37" y2="57.778" gradientUnits="userSpaceOnUse" spreadMethod="reflect"><stop offset="0" stop-color="#1a6dff"/><stop offset="1" stop-color="#c822ff"/></linearGradient><path fill="url(#A7EXgU1zfKmINu_ywwHp9k)" d="M45.906 11.807v5.514l.966.294v-3.429l1.455 3.82.84.322v-5.597l-1.008-.336v2.967l-1.315-3.331z"/><linearGradient id="A7EXgU1zfKmINu_ywwHp9l" x1="50.496" x2="50.496" y1="6.414" y2="57.626" gradientUnits="userSpaceOnUse" spreadMethod="reflect"><stop offset="0" stop-color="#1a6dff"/><stop offset="1" stop-color="#c822ff"/></linearGradient><path fill="url(#A7EXgU1zfKmINu_ywwHp9l)" d="M49.992 13.039v5.555L51 19v-5.611z"/><linearGradient id="A7EXgU1zfKmINu_ywwHp9m" x1="34.463" x2="34.463" y1="19.366" y2="46" gradientUnits="userSpaceOnUse" spreadMethod="reflect"><stop offset="0" stop-color="#6dc7ff"/><stop offset="1" stop-color="#e6abff"/></linearGradient><path fill="url(#A7EXgU1zfKmINu_ywwHp9m)" d="M43.771 35.237c-.453-.159-.963-.487-1.564-1.201.068-.306.091-.51.079-.68-.011-.17-.068-.306-.125-.499-.068-.17-.159-.34-.215-.612-.045-.272-.057-.634.057-1.212a7.896 7.896 0 00-.057-2.561c-.181-1.031-.578-2.175-1.348-3.15.272-.668.419-1.133.476-1.518.045-.374 0-.668-.136-.997-.136-.34-.532-.646-1.122-.872-.578-.227-1.36-.374-2.266-.419-.918-.034-2.209-.057-3.274-.147-1.088-.091-1.926-.238-1.903-.51.011-.283.17-.397.374-.453.204-.057.464-.045.657-.057.295.136.736.238 1.178.317a13.5 13.5 0 001.292.102c.362.034.725-.057 1.11-.147.374-.068.77-.159 1.224-.136-.374-.147-.838-.351-1.326-.521-.476-.17-.986-.283-1.416-.215-.147-.17-.249-.283-.431-.351-.17-.045-.419-.045-.827.023a4.907 4.907 0 01-.884.125 4.5 4.5 0 00-.635.068c-.261.034-.612.045-.906.17-.295.125-.544.329-.555.77-.034.431.091.816.499 1.11.431.283 1.133.487 2.3.544 1.156.068 2.425.102 3.467.227 1.042.125 1.847.306 2.107.657.261.34.329.566.272.736-.057.181-.227.306-.442.476-.17-.011-.476-.011-.85-.068a3.507 3.507 0 01-1.156-.34 3.184 3.184 0 00-1.246-.363c-.442-.023-.906.023-1.292.215-.397.181-1.348.566-2.334 1.212-.997.634-2.028 1.518-2.572 2.708-.544 1.19-.816 1.949-.986 2.481-.17.521-.238.816-.351 1.088-.113.272-.295.544-.453.861a2.793 2.793 0 00-.329 1.065 8.186 8.186 0 01-.159 1.326c-.068.453-.17.884-.261 1.212-.102.317-.204.702-.317 1.122a7.14 7.14 0 00-.215 1.394 9.203 9.203 0 01-.181 1.484 7.289 7.289 0 01-.295.997c-.045.102-.079.193-.113.272-.023.057-.057.113-.068.17-.125.306-.181.589-.249.838a2.442 2.442 0 01-.329.895c-.204.295-.465.668-.703 1.008-.261.351-.521.68-.714.906-.045.045-.079.113-.125.17-.076.159-.133.318-.133.465 0 .023.011.045.011.068.045.227.227.419.601.476.374.079.702.011.963-.125a.993.993 0 00.487-.623c.057-.238.079-.589.125-.952.034-.374.079-.725.227-.997l.283-.6c.136-.193.227-.272.317-.317.102-.068.181-.113.317-.261.125-.147.351-.544.544-1.02.204-.453.363-.963.374-1.326.023-.34.079-.634.147-.85a2.67 2.67 0 01.295-.601c.102-.17.17-.374.283-.521.091-.147.227-.249.453-.204.227.034.283.159.295.306.034.147 0 .329.068.476.068.159.136.317.238.476.102.147.227.283.431.374a.781.781 0 01.431.419.523.523 0 01-.068.555 6.574 6.574 0 00-.487.77c-.159.317-.295.623-.295.816-.011.204 0 .51-.068.827a1.66 1.66 0 01-.261.691l-.17.181a6.411 6.411 0 00-.634.703c-.147.215-.238.397-.238.521a.61.61 0 00.17.442c.125.147.329.261.668.272.317.011.578-.045.782-.147.181-.113.317-.295.408-.51a1.04 1.04 0 00.057-.532c-.023-.147-.068-.272-.057-.442.011-.147.057-.317.136-.499.057-.181.136-.363.17-.532.023-.193.079-.397.17-.634.091-.238.238-.499.453-.77a4.08 4.08 0 00.442-.703c.113-.215.181-.408.317-.566.136-.181.204-.261.249-.295.057-.023.102.034.227.102.125.091.136.159.113.249-.023.091-.113.181-.193.306-.079.125-.238.34-.419.544-.159.227-.34.464-.442.634a.933.933 0 00-.147.385c-.011 0-.011 0-.011.023-.011.057-.011.102-.011.147v.034c.023.193.147.351.419.397.283.034.487.045.646.011.159-.045.238-.125.283-.272.023-.159.079-.397.17-.634.091-.238.181-.476.283-.623.113-.147.193-.283.227-.397.045-.125.057-.227.068-.295.136.159.261.351.363.532.102.181.17.385.238.555.068.193.238.408.544.6.306.17.759.306 1.382.317.635 0 .963-.011 1.133-.057.181-.057.227-.136.306-.295.091-.147.272-.431.385-.736.102-.317.113-.623-.159-.816.068-.249.159-.589.283-.906.136-.34.295-.646.521-.827.215-.204.499-.385.748-.566.249-.17.476-.317.566-.442.306.204.601.431.816.759.215.329.351.736.351 1.314-.034.295 0 .578.034.827s.068.465.091.623c.023.147.011.317 0 .476 0 .17-.023.351 0 .532a.714.714 0 00.272.476.618.618 0 00.453.17c.147-.011.295-.147.408-.317.113-.181.181-.385.204-.566a.874.874 0 00-.102-.419c-.079-.091-.159-.181-.227-.261a.433.433 0 01-.136-.227c0-.102.023-.227.113-.431a.678.678 0 00.034-.532.814.814 0 00-.193-.34c-.079-.079-.147-.295-.204-.589a3.308 3.308 0 01-.023-.952 3.61 3.61 0 00-.045-1.042c-.079-.329-.204-.612-.397-.748.578 0 1.246 0 1.847-.136s1.133-.397 1.473-.918c-.34-.042-.713-.042-1.155-.2zm-1.915.498c-.521-.147-.963-.397-1.144-.68a1.85 1.85 0 00-.431-.408 1.772 1.772 0 00-.521-.272c-.17-.068-.465-.204-.748-.34a16.41 16.41 0 01-.736-.397 1.02 1.02 0 01-.272.283c-.125.125-.306.261-.499.408-.204.17-.249.295-.238.397.011.113.079.215.125.295.045.079.272.295.499.499.238.227.464.453.555.555-.295-.034-.487-.057-.702-.147-.238-.091-.499-.249-.918-.555-.442-.306-.544-.601-.544-.85a.832.832 0 01.227-.533 2.52 2.52 0 01.419-.34c.159-.113.317-.215.385-.261.091-.045.125-.125.125-.17-.011-.045-.057-.102-.159-.091-.736.068-1.269.238-1.632.442-.351.193-.521.408-.533.578a.935.935 0 00.045.464c.068.136.159.283.317.442.136.159.181.34.17.533a.7.7 0 01-.204.431.821.821 0 00-.193.215c-.034.068-.068.17-.136.385-.079.193-.136.578-.193.986a8.808 8.808 0 00-.068 1.156c.113-.159.261-.283.419-.374.147-.091.306-.136.419-.17.023.77-.045 1.326-.147 1.733-.079.397-.204.657-.283.85-.011.079-.045.102-.102.091-.034-.011-.068-.057-.079-.113a4.626 4.626 0 00-.238-.748c-.113-.261-.238-.499-.374-.646-.363-.397-.521-.6-.578-.759-.079-.181-.057-.306-.045-.521-.589-.351-.748-.736-.736-1.076.023-.34.238-.657.408-.884a3.97 3.97 0 00.431-.725 3.02 3.02 0 00.193-.612c.023-.136-.034-.397-.125-.668a3.39 3.39 0 00-.385-.782c-.045-.011-.136-.045-.249-.034-.125.011-.249.068-.351.249-.102.17-.204.261-.317.295a1.05 1.05 0 01-.374.023 1.297 1.297 0 00-.419-.023.528.528 0 00-.397.204c-.113.147-.238.147-.363.091-.125-.045-.249-.147-.34-.193-.102-.068-.159-.125-.227-.17-.079-.045-.193-.068-.397-.068-.227 0-.306.147-.397.306-.079.159-.159.329-.351.362-.193.045-.317-.068-.385-.261-.057-.204-.068-.487-.045-.793-.023-.397.147-.986.374-1.541s.476-1.065.601-1.303c.125-.249.329-.736.532-1.28.215-.533.431-1.11.578-1.575.147-.442.442-.782.782-1.076.34-.295.748-.566 1.11-.884a5.655 5.655 0 011.201-.793c.419-.193.816-.306 1.122-.283.306.023.601.215.861.419.249.215.442.442.533.566.102.125.17.397.249.691.079.283.159.589.272.782.102.181.181.453.249.782.057.317.125.68.159 1.031.045.363.17.623.295.838.136.215.283.397.374.566.091.181.17.623.295 1.088.113.487.249 1.008.453 1.36.193.374.532.623.85.793.329.181.646.272.804.34.159.045.272.068.397.147.113.079.238.181.419.442.261.351.668.646 1.054.872.374.227.736.374.895.431-.522.16-1.123.126-1.621-.022z"/></svg>